HIERARCHY
ROOT Hips
{
	OFFSET 0.000000 0.000000 0.000000
	CHANNELS 6 Xposition Yposition Zposition Zrotation Yrotation Xrotation 
	JOINT LHipJoint
	{
		OFFSET 0.000000 0.000000 0.000000
		CHANNELS 3 Zrotation Yrotation Xrotation
		JOINT LeftUpLeg
		{
			OFFSET 1.363060 -1.794630 0.839290
			CHANNELS 3 Zrotation Yrotation Xrotation
			JOINT LeftLeg
			{
				OFFSET 2.448110 -6.726130 0.000000
				CHANNELS 3 Zrotation Yrotation Xrotation
				JOINT LeftFoot
				{
					OFFSET 2.562200 -7.039590 0.000000
					CHANNELS 3 Zrotation Yrotation Xrotation
					JOINT LeftToeBase
					{
						OFFSET 0.157640 -0.433110 2.322550
						CHANNELS 3 Zrotation Yrotation Xrotation
						End Site
						{
							OFFSET 0.000000 0.000000 0.000000
						}
					}
				}
			}
		}
	}
	JOINT RHipJoint
	{
		OFFSET 0.000000 0.000000 0.000000
		CHANNELS 3 Zrotation Yrotation Xrotation
		JOINT RightUpLeg
		{
			OFFSET -1.305520 -1.794630 0.839290
			CHANNELS 3 Zrotation Yrotation Xrotation
			JOINT RightLeg
			{
				OFFSET -2.542530 -6.985550 0.000000
				CHANNELS 3 Zrotation Yrotation Xrotation
				JOINT RightFoot
				{
					OFFSET -2.568260 -7.056230 0.000000
					CHANNELS 3 Zrotation Yrotation Xrotation
					JOINT RightToeBase
					{
						OFFSET -0.164730 -0.452590 2.363150
						CHANNELS 3 Zrotation Yrotation Xrotation
						End Site
						{
							OFFSET 0.000000 0.000000 0.000000
						}
					}
				}
			}
		}
	}
	JOINT LowerBack
	{
		OFFSET 0.000000 0.000000 0.000000
		CHANNELS 3 Zrotation Yrotation Xrotation
		JOINT Spine
		{
			OFFSET 0.028270 2.035590 -0.193380
			CHANNELS 3 Zrotation Yrotation Xrotation
			JOINT Spine1
			{
				OFFSET 0.056720 2.048850 -0.042750
				CHANNELS 3 Zrotation Yrotation Xrotation
				JOINT Neck
				{
					OFFSET 0.000000 0.000000 0.000000
					CHANNELS 3 Zrotation Yrotation Xrotation
					JOINT Neck1
					{
						OFFSET -0.054170 1.746240 0.172020
						CHANNELS 3 Zrotation Yrotation Xrotation
						JOINT Head
						{
							OFFSET 0.104070 1.761360 -0.123970
							CHANNELS 3 Zrotation Yrotation Xrotation
							End Site
							{
								OFFSET 0.000000 0.000000 0.000000
							}
						}
					}
				}
				JOINT LeftShoulder
				{
					OFFSET 0.000000 0.000000 0.000000
					CHANNELS 3 Zrotation Yrotation Xrotation
					JOINT LeftArm
					{
						OFFSET 3.362410 1.200890 -0.311210
						CHANNELS 3 Zrotation Yrotation Xrotation
						JOINT LeftForeArm
						{
							OFFSET 4.983000 -0.000000 -0.000000
							CHANNELS 3 Zrotation Yrotation Xrotation
							JOINT LeftHand
							{
								OFFSET 3.483560 -0.000000 -0.000000
								CHANNELS 3 Zrotation Yrotation Xrotation
								JOINT LeftFingerBase
								{
									OFFSET 0.000000 0.000000 0.000000
									CHANNELS 3 Zrotation Yrotation Xrotation
									JOINT LeftHandIndex1
									{
										OFFSET 0.715260 -0.000000 -0.000000
										CHANNELS 3 Zrotation Yrotation Xrotation
										End Site
										{
											OFFSET 0.000000 0.000000 0.000000
										}
									}
								}
								JOINT LThumb
								{
									OFFSET 0.000000 0.000000 0.000000
									CHANNELS 3 Zrotation Yrotation Xrotation
									End Site
									{
										OFFSET 0.000000 0.000000 0.000000
									}
								}
							}
						}
					}
				}
				JOINT RightShoulder
				{
					OFFSET 0.000000 0.000000 0.000000
					CHANNELS 3 Zrotation Yrotation Xrotation
					JOINT RightArm
					{
						OFFSET -3.136600 1.374050 -0.404650
						CHANNELS 3 Zrotation Yrotation Xrotation
						JOINT RightForeArm
						{
							OFFSET -5.241900 -0.000000 -0.000000
							CHANNELS 3 Zrotation Yrotation Xrotation
							JOINT RightHand
							{
								OFFSET -3.444170 -0.000000 -0.000000
								CHANNELS 3 Zrotation Yrotation Xrotation
								JOINT RightFingerBase
								{
									OFFSET 0.000000 0.000000 0.000000
									CHANNELS 3 Zrotation Yrotation Xrotation
									JOINT RightHandIndex1
									{
										OFFSET -0.622530 -0.000000 -0.000000
										CHANNELS 3 Zrotation Yrotation Xrotation
										End Site
										{
											OFFSET 0.000000 0.000000 0.000000
										}
									}
								}
								JOINT RThumb
								{
									OFFSET 0.000000 0.000000 0.000000
									CHANNELS 3 Zrotation Yrotation Xrotation
									End Site
									{
										OFFSET 0.000000 0.000000 0.000000
									}
								}
							}
						}
					}
				}
			}
		}
	}
}
MOTION
Frames: 4
Frame Time: 0.008333
11.225454 17.906658 -24.326830 1.701028 11.409642 4.293379 -8.586039 6.218955 11.870713 -7.472421 -8.349364 6.298298 -2.071230 5.137078 17.400298 -0.366457 9.011353 25.349857 1.973983 -8.810598 -25.205439 6.303639 0.407199 -3.285449 6.741862 8.524235 -30.517307 0.128556 -10.313276 23.357290 8.515662 -24.372034 10.457938 -0.442659 4.254367 -11.795578 -0.268861 -5.076382 3.875663 1.842638 -6.093769 -3.732182 4.504694 -3.918677 -1.770933 -9.142109 1.832429 -10.370250 4.301802 3.076646 0.318536 1.508836 1.548053 1.071866 -3.574979 -3.223861 0.669951 -73.241753 -6.405745 38.068083 81.578361 -57.657394 -56.877670 -0.538308 -1.032486 -29.391151 25.238752 10.053260 5.207492 -7.125000 0.000000 0.000000 -0.764358 41.834100 0.059757 7.515759 1.504516 -1.795101 73.589357 -25.832551 22.043617 -4.863455 16.691894 -1.217246 2.173692 -0.414087 -9.324526 -27.331684 14.197210 -8.179708 7.125000 0.000000 0.000000 -1.248259 -13.139772 -0.932217
11.227209 17.912856 -24.180751 1.463911 11.141069 4.289788 -8.591474 6.189336 11.807022 -7.298614 -8.062971 5.945244 -1.843027 5.498749 18.284036 -0.557548 9.748754 26.215663 1.905749 -8.665795 -24.756117 6.328172 0.392212 -3.238194 7.131869 8.644602 -30.513544 0.024173 -10.465118 23.928674 8.242359 -23.923019 10.989600 -0.362977 3.854300 -10.669135 0.077748 -5.046593 3.768352 1.864915 -6.037604 -3.742160 4.434440 -3.881646 -1.730876 -9.183092 1.890179 -10.637748 4.295376 3.201341 0.368819 1.538309 1.609358 1.163598 -3.574831 -3.208677 0.637485 -73.446234 -5.823207 38.094800 81.081971 -57.646251 -56.416781 -0.543812 -1.026981 -29.370288 25.209171 9.965284 5.155475 -7.125000 0.000000 0.000000 -0.780073 41.725899 0.063071 7.534146 1.529687 -1.768020 73.535114 -25.357868 21.744434 -4.740070 16.483585 -1.185851 2.180627 -0.459322 -9.128873 -27.427893 14.511687 -8.399725 7.125000 0.000000 0.000000 -1.276778 -12.730517 -0.964451
11.228323 17.916852 -24.035145 1.224778 10.849440 4.227470 -8.588978 6.164029 11.737836 -7.146187 -7.756521 5.627955 -1.590405 5.873420 19.205152 -0.734571 10.490448 27.109082 1.856427 -8.560093 -24.428820 6.352565 0.368470 -3.168021 7.549596 8.732703 -30.460244 -0.060685 -10.597977 24.495079 7.931700 -23.314240 11.334715 -0.276582 3.336878 -9.221944 0.403328 -5.008147 3.730872 1.884497 -5.969229 -3.751971 4.353780 -3.837896 -1.728125 -9.114389 1.964405 -10.888913 4.230281 3.333085 0.458284 1.510866 1.668035 1.278352 -3.568089 -3.199093 0.604427 -73.647523 -5.214109 38.148544 80.485250 -57.622052 -55.861221 -0.551591 -1.020071 -29.373238 25.207428 9.833407 5.087583 -7.125000 0.000000 0.000000 -0.765340 41.569128 0.064623 7.555952 1.557823 -1.744996 73.501427 -24.936003 21.619824 -4.648707 16.317851 -1.160700 2.196963 -0.504168 -9.201486 -27.632671 14.958338 -8.737939 7.125000 0.000000 0.000000 -1.362826 -12.143494 -1.047579
11.228816 17.918717 -23.889998 0.983693 10.535510 4.108351 -8.578810 6.142890 11.663334 -7.014440 -7.430673 5.345259 -1.314164 6.260665 20.162421 -0.897987 11.236293 28.029210 1.825397 -8.492210 -24.219548 6.376822 0.336262 -3.075682 7.994132 8.789594 -30.359032 -0.126657 -10.712475 25.056668 7.584909 -22.550937 11.499400 -0.183695 2.705949 -7.464521 0.708570 -4.961326 3.760932 1.901472 -5.889043 -3.761620 4.263053 -3.787646 -1.761457 -8.939597 2.054566 -11.124279 4.108440 3.471644 0.585647 1.428372 1.724169 1.415373 -3.554969 -3.194924 0.570799 -73.845726 -4.579322 38.228429 79.791486 -57.585224 -55.214095 -0.561571 -1.011802 -29.399220 25.232611 9.659069 5.004336 -7.125000 0.000000 0.000000 -0.721156 41.365379 0.064473 7.581063 1.588828 -1.725896 73.487620 -24.565223 21.664063 -4.588316 16.193294 -1.141588 2.222394 -0.548638 -9.533569 -27.942460 15.532828 -9.190474 7.125000 0.000000 0.000000 -1.504516 -11.384532 -1.179930
